<?xml version="1.0" encoding="UTF-8"?>
<svg xmlns="http://www.w3.org/2000/svg" xmlns:xlink="http://www.w3.org/1999/xlink" width="25px" height="25px" viewBox="0 0 25 25" version="1.1">
<g id="surface1">
<path style=" stroke:none;fill-rule:nonzero;fill:rgb(75.686275%,41.176471%,30.980392%);fill-opacity:1;" d="M 22.222656 23.609375 C 22.222656 24.378906 21.597656 25 20.835938 25 L 4.164062 25 C 3.402344 25 2.777344 24.378906 2.777344 23.609375 L 2.777344 4.859375 C 2.777344 4.09375 3.402344 3.472656 4.164062 3.472656 L 20.835938 3.472656 C 21.597656 3.472656 22.222656 4.09375 22.222656 4.859375 Z M 22.222656 23.609375 "/>
<path style=" stroke:none;fill-rule:nonzero;fill:rgb(100%,100%,100%);fill-opacity:1;" d="M 20.140625 22.222656 C 20.140625 22.609375 19.828125 22.914062 19.445312 22.914062 L 5.554688 22.914062 C 5.171875 22.914062 4.859375 22.609375 4.859375 22.222656 L 4.859375 6.25 C 4.859375 5.867188 5.171875 5.554688 5.554688 5.554688 L 19.445312 5.554688 C 19.828125 5.554688 20.140625 5.867188 20.140625 6.25 Z M 20.140625 22.222656 "/>
<path style=" stroke:none;fill-rule:nonzero;fill:rgb(80%,83.921569%,86.666667%);fill-opacity:1;" d="M 17.359375 2.085938 L 14.585938 2.085938 C 14.585938 0.933594 13.648438 0 12.5 0 C 11.351562 0 10.414062 0.933594 10.414062 2.085938 L 7.640625 2.085938 C 6.871094 2.085938 6.25 2.703125 6.25 3.472656 L 6.25 6.945312 L 18.75 6.945312 L 18.75 3.472656 C 18.75 2.703125 18.128906 2.085938 17.359375 2.085938 Z M 17.359375 2.085938 "/>
<path style=" stroke:none;fill-rule:nonzero;fill:rgb(16.078431%,18.431373%,20%);fill-opacity:1;" d="M 13.890625 2.085938 C 13.890625 2.851562 13.265625 3.472656 12.5 3.472656 C 11.734375 3.472656 11.109375 2.851562 11.109375 2.085938 C 11.109375 1.320312 11.734375 0.695312 12.5 0.695312 C 13.265625 0.695312 13.890625 1.320312 13.890625 2.085938 Z M 13.890625 2.085938 "/>
<path style=" stroke:none;fill-rule:nonzero;fill:rgb(60%,66.666667%,70.980392%);fill-opacity:1;" d="M 13.890625 9.722656 C 13.890625 10.109375 13.578125 10.414062 13.195312 10.414062 L 6.945312 10.414062 C 6.5625 10.414062 6.25 10.109375 6.25 9.722656 C 6.25 9.339844 6.5625 9.027344 6.945312 9.027344 L 13.195312 9.027344 C 13.578125 9.027344 13.890625 9.339844 13.890625 9.722656 Z M 18.75 12.5 C 18.75 12.882812 18.441406 13.195312 18.054688 13.195312 L 6.945312 13.195312 C 6.5625 13.195312 6.25 12.882812 6.25 12.5 C 6.25 12.117188 6.5625 11.804688 6.945312 11.804688 L 18.054688 11.804688 C 18.441406 11.804688 18.75 12.117188 18.75 12.5 Z M 18.75 15.277344 C 18.75 15.660156 18.441406 15.972656 18.054688 15.972656 L 6.945312 15.972656 C 6.5625 15.972656 6.25 15.660156 6.25 15.277344 C 6.25 14.890625 6.5625 14.585938 6.945312 14.585938 L 18.054688 14.585938 C 18.441406 14.585938 18.75 14.890625 18.75 15.277344 Z M 18.75 18.054688 C 18.75 18.441406 18.441406 18.75 18.054688 18.75 L 6.945312 18.75 C 6.5625 18.75 6.25 18.441406 6.25 18.054688 C 6.25 17.671875 6.5625 17.359375 6.945312 17.359375 L 18.054688 17.359375 C 18.441406 17.359375 18.75 17.671875 18.75 18.054688 Z M 18.75 20.835938 C 18.75 21.214844 18.441406 21.527344 18.054688 21.527344 L 11.804688 21.527344 C 11.421875 21.527344 11.109375 21.214844 11.109375 20.835938 C 11.109375 20.449219 11.421875 20.140625 11.804688 20.140625 L 18.054688 20.140625 C 18.441406 20.140625 18.75 20.449219 18.75 20.835938 Z M 18.75 20.835938 "/>
</g>
</svg>
